<svg version="1.1" id="Layer_1" x="0px" y="0px" viewBox="0 0 32 32" xml:space="preserve" xmlns="http://www.w3.org/2000/svg" xmlns:svg="http://www.w3.org/2000/svg">
<g transform="translate(16, 16) scale(1) translate(-16, -16)">
<g transform="translate(16, 16) scale(0.6504064908453965) translate(-24.6000005, -19.85)">
<defs id="defs191"/>
<style type="text/css" id="style182">
	.st0{fill:#EABC4C;}
	.st1{fill:#FFFFFF;}
</style>

<path class="st1" d="M 38.6,0.1 C 33.8,0.1 29.9,4 29.9,8.8 H 19.4 L 28.1,0.1 H 17.5 C 12.7,0.1 8.8,4 8.8,8.8 v 0 H 8.7 C 3.9,8.8 0,12.7 0,17.5 H 8.8 V 24 c 0,8.7 7.1,15.7 15.7,15.7 h 16 V 8.7 L 49.2,0 Z m -9.1,23 c -1.3,-1.3 -1.3,-3.4 0,-4.7 l 4.7,4.7 c -1.3,1.3 -3.4,1.3 -4.7,0 z" id="path186" style="fill:#ffffff;fill-opacity:1"/>
</g>
</g>
</svg>
