<?xml version="1.0" standalone="no"?>
<!DOCTYPE svg PUBLIC "-//W3C//DTD SVG 20010904//EN"
 "http://www.w3.org/TR/2001/REC-SVG-20010904/DTD/svg10.dtd">
<svg version="1.0" xmlns="http://www.w3.org/2000/svg"
 width="704.000000pt" height="854.000000pt" viewBox="0 0 704.000000 854.000000"
 preserveAspectRatio="xMidYMid meet">

<g transform="translate(0.000000,854.000000) scale(0.100000,-0.100000)"
fill="#000000" stroke="none">
<path d="M2722 8500 c-116 -47 -347 -161 -477 -234 -574 -325 -1091 -800
-1467 -1346 -673 -976 -923 -2201 -688 -3370 154 -766 495 -1457 1009 -2042
869 -989 2124 -1540 3426 -1505 864 24 1619 262 2347 740 76 50 136 92 134 95
-3 2 -67 -17 -143 -43 -302 -102 -636 -176 -955 -212 -194 -22 -711 -24 -903
-5 -1019 105 -1959 549 -2681 1267 -83 83 -191 197 -240 256 -585 686 -943
1515 -1040 2409 -22 203 -25 689 -6 885 90 892 418 1687 990 2394 122 151 473
498 627 620 138 110 152 121 145 121 -3 0 -38 -14 -78 -30z"/>
</g>
</svg>
